<svg xmlns="http://www.w3.org/2000/svg" xmlns:xlink="http://www.w3.org/1999/xlink" width="656" zoomAndPan="magnify" viewBox="0 0 492 60" height="80" preserveAspectRatio="xMidYMid meet" version="1.0"><defs><g/><clipPath id="43e473a587"><path d="M 147.804688 0.339844 L 215.304688 0.339844 L 215.304688 58.839844 L 147.804688 58.839844 Z M 147.804688 0.339844 " clip-rule="nonzero"/></clipPath></defs><g clip-path="url(#43e473a587)"><path fill="#7ed957" d="M 174.28125 40.113281 L 176.125 40.113281 C 176.90625 40.113281 177.546875 40.746094 177.546875 41.519531 C 177.546875 42.296875 176.90625 42.929688 176.125 42.929688 L 174.28125 42.929688 C 173.5 42.929688 172.859375 42.296875 172.859375 41.519531 C 172.859375 40.746094 173.5 40.113281 174.28125 40.113281 Z M 170.519531 11.566406 C 171.15625 11.425781 171.617188 10.863281 171.617188 10.195312 C 171.617188 9.488281 171.085938 8.890625 170.410156 8.785156 L 164.449219 8.785156 C 163.667969 8.785156 163.03125 8.152344 163.03125 7.378906 C 163.03125 6.605469 163.667969 5.96875 164.449219 5.96875 L 173.285156 5.96875 C 174.066406 5.96875 174.707031 5.335938 174.707031 4.5625 C 174.707031 3.859375 174.175781 3.261719 173.5 3.152344 L 166.1875 3.152344 C 165.40625 3.152344 164.769531 2.519531 164.769531 1.746094 C 164.769531 0.972656 165.40625 0.339844 166.1875 0.339844 L 212.71875 0.339844 C 214.136719 0.339844 215.273438 1.464844 215.273438 2.871094 L 215.273438 9.664062 C 215.273438 11.074219 214.136719 12.199219 212.71875 12.199219 L 199.871094 12.199219 C 198.449219 12.199219 197.316406 13.328125 197.316406 14.734375 L 197.316406 56.304688 C 197.316406 57.710938 196.179688 58.839844 194.757812 58.839844 L 182.941406 58.839844 C 182.90625 58.734375 182.90625 58.59375 182.90625 58.484375 C 182.90625 57.710938 183.542969 57.078125 184.324219 57.078125 L 186.453125 57.078125 C 187.234375 57.078125 187.875 56.445312 187.875 55.671875 C 187.875 54.894531 187.234375 54.261719 186.453125 54.261719 L 182.054688 54.261719 C 181.273438 54.261719 180.632812 53.628906 180.632812 52.855469 C 180.632812 52.082031 181.273438 51.445312 182.054688 51.445312 L 178.398438 51.445312 L 184.503906 51.445312 C 185.28125 51.445312 185.921875 50.8125 185.921875 50.039062 C 185.921875 49.265625 185.28125 48.628906 184.503906 48.628906 L 181.699219 48.628906 C 180.917969 48.628906 180.277344 47.996094 180.277344 47.222656 C 180.277344 46.449219 180.917969 45.816406 181.699219 45.816406 L 187.660156 45.816406 C 188.441406 45.816406 189.082031 45.179688 189.082031 44.40625 C 189.082031 43.632812 188.441406 43 187.660156 43 L 179.925781 43 C 179.144531 43 178.503906 42.367188 178.503906 41.589844 C 178.503906 40.816406 179.144531 40.183594 179.925781 40.183594 L 185.28125 40.183594 C 186.0625 40.183594 186.703125 39.550781 186.703125 38.773438 C 186.703125 38 186.0625 37.367188 185.28125 37.367188 L 178.113281 37.367188 C 177.332031 37.367188 176.695312 36.734375 176.695312 35.960938 C 176.695312 35.183594 177.332031 34.550781 178.113281 34.550781 L 189.363281 34.550781 C 190.144531 34.550781 190.785156 33.917969 190.785156 33.144531 C 190.785156 32.367188 190.144531 31.734375 189.363281 31.734375 L 182.621094 31.734375 C 181.839844 31.734375 181.203125 31.101562 181.203125 30.328125 C 181.203125 29.554688 181.839844 28.917969 182.621094 28.917969 L 186.277344 28.917969 C 187.058594 28.917969 187.695312 28.285156 187.695312 27.511719 C 187.695312 26.738281 187.058594 26.105469 186.277344 26.105469 L 180.847656 26.105469 C 180.066406 26.105469 179.425781 25.46875 179.425781 24.695312 C 179.425781 23.921875 180.066406 23.289062 180.847656 23.289062 L 189.683594 23.289062 C 190.464844 23.289062 191.105469 22.652344 191.105469 21.878906 C 191.105469 21.105469 190.464844 20.472656 189.683594 20.472656 L 174.8125 20.472656 C 174.03125 20.472656 173.394531 19.839844 173.394531 19.0625 C 173.394531 18.289062 174.03125 17.65625 174.8125 17.65625 L 185.105469 17.65625 C 185.886719 17.65625 186.523438 17.023438 186.523438 16.25 C 186.523438 15.472656 185.886719 14.839844 185.105469 14.839844 C 178.894531 14.839844 172.71875 14.875 166.507812 14.875 C 165.726562 14.875 165.089844 14.242188 165.089844 13.46875 C 165.089844 12.691406 165.726562 12.058594 166.507812 12.058594 L 170.519531 12.058594 Z M 172.363281 28.601562 L 176.445312 28.601562 C 177.226562 28.601562 177.867188 29.234375 177.867188 30.011719 C 177.867188 30.785156 177.226562 31.417969 176.445312 31.417969 L 159.835938 31.417969 C 159.054688 31.417969 158.414062 30.785156 158.414062 30.011719 C 158.414062 29.234375 159.054688 28.601562 159.835938 28.601562 Z M 149.257812 5.933594 L 151.105469 5.933594 C 151.886719 5.933594 152.523438 6.570312 152.523438 7.34375 C 152.523438 8.117188 151.886719 8.75 151.105469 8.75 L 149.257812 8.75 C 148.476562 8.75 147.839844 8.117188 147.839844 7.34375 C 147.839844 6.570312 148.476562 5.933594 149.257812 5.933594 Z M 154.972656 5.933594 L 160.402344 5.933594 C 161.183594 5.933594 161.824219 6.570312 161.824219 7.34375 C 161.824219 8.117188 161.183594 8.75 160.402344 8.75 L 154.972656 8.75 C 154.191406 8.75 153.554688 8.117188 153.554688 7.34375 C 153.519531 6.570312 154.191406 5.933594 154.972656 5.933594 Z M 175.769531 51.339844 L 177.402344 51.339844 C 178.183594 51.339844 178.824219 51.972656 178.824219 52.75 C 178.824219 53.523438 178.183594 54.15625 177.402344 54.15625 L 175.769531 54.15625 C 174.992188 54.15625 174.351562 53.523438 174.351562 52.75 C 174.351562 51.972656 174.992188 51.339844 175.769531 51.339844 Z M 169.984375 34.269531 L 173.5 34.269531 C 174.28125 34.269531 174.917969 34.902344 174.917969 35.675781 C 174.917969 36.453125 174.28125 37.085938 173.5 37.085938 L 169.984375 37.085938 C 169.207031 37.085938 168.566406 36.453125 168.566406 35.675781 C 168.566406 34.902344 169.207031 34.269531 169.984375 34.269531 Z M 159.480469 11.566406 L 160.757812 11.566406 C 161.539062 11.566406 162.179688 12.199219 162.179688 12.972656 C 162.179688 13.75 161.539062 14.382812 160.757812 14.382812 L 159.480469 14.382812 C 158.699219 14.382812 158.0625 13.75 158.0625 12.972656 C 158.0625 12.199219 158.699219 11.566406 159.480469 11.566406 Z M 169.632812 45.640625 L 175.734375 45.640625 C 176.515625 45.640625 177.15625 46.273438 177.15625 47.046875 C 177.15625 47.820312 176.515625 48.453125 175.734375 48.453125 L 169.632812 48.453125 C 168.851562 48.453125 168.210938 47.820312 168.210938 47.046875 C 168.210938 46.308594 168.851562 45.640625 169.632812 45.640625 Z M 164.09375 17.234375 L 169.632812 17.234375 C 170.410156 17.234375 171.050781 17.867188 171.050781 18.640625 C 171.050781 19.414062 170.410156 20.050781 169.632812 20.050781 L 164.09375 20.050781 C 163.3125 20.050781 162.675781 19.414062 162.675781 18.640625 C 162.675781 17.867188 163.3125 17.234375 164.09375 17.234375 Z M 164.09375 17.234375 " fill-opacity="1" fill-rule="evenodd"/></g><g fill="#ffffff" fill-opacity="1"><g transform="translate(215.000835, 58.782884)"><g><path d="M 0.492188 0 L 11.894531 0 L 16.421875 -12.636719 L 39.019531 -12.636719 L 43.503906 0 L 54.78125 0 L 31.609375 -58.15625 L 23.789062 -58.15625 Z M 19.960938 -21.566406 L 27.742188 -42.804688 L 35.476562 -21.566406 Z M 19.960938 -21.566406 "/></g></g><g transform="translate(270.276314, 58.782884)"><g><path d="M 28.398438 0.824219 C 44 0.824219 50.664062 -8.4375 50.664062 -23.089844 L 50.664062 -58.15625 L 40.210938 -58.15625 L 40.210938 -23.871094 C 40.210938 -14.488281 37.785156 -9.261719 28.398438 -9.261719 C 19.054688 -9.261719 16.585938 -14.488281 16.585938 -23.871094 L 16.585938 -58.15625 L 6.171875 -58.15625 L 6.171875 -22.679688 C 6.171875 -8.4375 12.800781 0.824219 28.398438 0.824219 Z M 28.398438 0.824219 "/></g></g></g></svg>